<svg width="14" height="21" viewBox="0 0 14 21" fill="none" xmlns="http://www.w3.org/2000/svg">
<circle cx="6.56423" cy="6.56423" r="6.06423" stroke="white"/>
<mask id="path-2-inside-1_54_586" fill="white">
<path fill-rule="evenodd" clip-rule="evenodd" d="M1.14111 10.2642V18.5223C1.14111 19.5392 2.13158 20.2614 3.09978 19.9505L6.53437 18.8474C6.63639 18.8147 6.74623 18.8155 6.84772 18.8499L10.0052 19.9198C10.9778 20.2493 11.9866 19.5261 11.9866 18.4991V10.2655C11.6984 10.6868 11.3625 11.0728 10.9866 11.4157V18.4991C10.9866 18.8414 10.6503 19.0825 10.3261 18.9727L7.16862 17.9028C6.86418 17.7997 6.53465 17.797 6.2286 17.8953L2.794 18.9984C2.47127 19.102 2.14111 18.8613 2.14111 18.5223V11.4149C1.76514 11.0718 1.4292 10.6857 1.14111 10.2642Z"/>
</mask>
<path fill-rule="evenodd" clip-rule="evenodd" d="M1.14111 10.2642V18.5223C1.14111 19.5392 2.13158 20.2614 3.09978 19.9505L6.53437 18.8474C6.63639 18.8147 6.74623 18.8155 6.84772 18.8499L10.0052 19.9198C10.9778 20.2493 11.9866 19.5261 11.9866 18.4991V10.2655C11.6984 10.6868 11.3625 11.0728 10.9866 11.4157V18.4991C10.9866 18.8414 10.6503 19.0825 10.3261 18.9727L7.16862 17.9028C6.86418 17.7997 6.53465 17.797 6.2286 17.8953L2.794 18.9984C2.47127 19.102 2.14111 18.8613 2.14111 18.5223V11.4149C1.76514 11.0718 1.4292 10.6857 1.14111 10.2642Z" fill="white"/>
<path d="M1.14111 10.2642L1.9667 9.69988L0.141113 7.02891V10.2642H1.14111ZM3.09978 19.9505L3.40555 20.9026L3.09978 19.9505ZM6.53437 18.8474L6.84015 19.7995H6.84015L6.53437 18.8474ZM6.84772 18.8499L7.16862 17.9028L7.16862 17.9028L6.84772 18.8499ZM10.0052 19.9198L10.3261 18.9727H10.3261L10.0052 19.9198ZM11.9866 10.2655H12.9866V7.03161L11.1611 9.701L11.9866 10.2655ZM10.9866 11.4157L10.3127 10.6769L9.98655 10.9743V11.4157H10.9866ZM10.3261 18.9727L10.647 18.0255L10.647 18.0255L10.3261 18.9727ZM7.16862 17.9028L6.84772 18.8499H6.84772L7.16862 17.9028ZM6.2286 17.8953L5.92283 16.9432L5.92282 16.9432L6.2286 17.8953ZM2.794 18.9984L2.48823 18.0463H2.48823L2.794 18.9984ZM2.14111 11.4149H3.14111V10.9736L2.81515 10.6762L2.14111 11.4149ZM2.14111 18.5223V10.2642H0.141113V18.5223H2.14111ZM2.794 18.9984C2.47127 19.102 2.14111 18.8613 2.14111 18.5223H0.141113C0.141113 20.2172 1.79188 21.4208 3.40555 20.9026L2.794 18.9984ZM6.2286 17.8953L2.794 18.9984L3.40555 20.9026L6.84015 19.7995L6.2286 17.8953ZM7.16862 17.9028C6.86418 17.7997 6.53465 17.797 6.2286 17.8953L6.84015 19.7995C6.73813 19.8323 6.62829 19.8314 6.52681 19.797L7.16862 17.9028ZM10.3261 18.9727L7.16862 17.9028L6.52681 19.797L9.68428 20.8669L10.3261 18.9727ZM10.9866 18.4991C10.9866 18.8414 10.6503 19.0825 10.3261 18.9727L9.68428 20.8669C11.3053 21.4161 12.9866 20.2107 12.9866 18.4991H10.9866ZM10.9866 10.2655V18.4991H12.9866V10.2655H10.9866ZM11.1611 9.701C10.9168 10.0583 10.6317 10.3859 10.3127 10.6769L11.6604 12.1545C12.0933 11.7598 12.4801 11.3153 12.812 10.83L11.1611 9.701ZM11.9866 18.4991V11.4157H9.98655V18.4991H11.9866ZM10.0052 19.9198C10.9778 20.2493 11.9866 19.5261 11.9866 18.4991H9.98655C9.98655 18.1568 10.3228 17.9157 10.647 18.0255L10.0052 19.9198ZM6.84772 18.8499L10.0052 19.9198L10.647 18.0255L7.48953 16.9557L6.84772 18.8499ZM6.53437 18.8474C6.63639 18.8147 6.74623 18.8155 6.84772 18.8499L7.48953 16.9557C6.98212 16.7838 6.43291 16.7794 5.92283 16.9432L6.53437 18.8474ZM3.09978 19.9505L6.53437 18.8474L5.92282 16.9432L2.48823 18.0463L3.09978 19.9505ZM1.14111 18.5223C1.14111 19.5392 2.13157 20.2614 3.09978 19.9505L2.48823 18.0463C2.81096 17.9426 3.14111 18.1833 3.14111 18.5223H1.14111ZM1.14111 11.4149V18.5223H3.14111V11.4149H1.14111ZM2.81515 10.6762C2.49606 10.385 2.21102 10.0573 1.9667 9.69988L0.315529 10.8284C0.647375 11.314 1.03422 11.7586 1.46708 12.1536L2.81515 10.6762Z" fill="white" mask="url(#path-2-inside-1_54_586)"/>
</svg>
